<svg xmlns="http://www.w3.org/2000/svg" style="display:none">
    <symbol id="filter" viewBox="0 0 13 13">
        <path d="M0.210938 1.23047C0.0703125 1.06641 0.0117188 0.890625 0.0351562 0.703125C0.0585938 0.515625 0.140625 0.351562 0.28125 0.210938C0.421875 0.0703125 0.597656 0 0.808594 0H11.2148C11.4258 0 11.6016 0.0703125 11.7422 0.210938C11.8828 0.351562 11.9648 0.515625 11.9883 0.703125C12.0117 0.890625 11.9531 1.06641 11.8125 1.23047C11.5078 1.60547 11.168 2.03906 10.793 2.53125C10.418 3.02344 10.0312 3.51562 9.63281 4.00781C9.25781 4.5 8.90625 4.95703 8.57812 5.37891C8.27344 5.80078 8.01562 6.14062 7.80469 6.39844C7.61719 6.63281 7.52344 6.75 7.52344 6.75V11.25C7.52344 11.4609 7.44141 11.6484 7.27734 11.8125C7.13672 11.9531 6.96094 12.0234 6.75 12.0234H5.27344C5.0625 12.0234 4.875 11.9531 4.71094 11.8125C4.57031 11.6484 4.5 11.4609 4.5 11.25V6.75C4.5 6.75 4.39453 6.63281 4.18359 6.39844C3.99609 6.14062 3.73828 5.80078 3.41016 5.37891C3.10547 4.95703 2.75391 4.5 2.35547 4.00781C1.98047 3.51562 1.60547 3.02344 1.23047 2.53125C0.855469 2.03906 0.515625 1.60547 0.210938 1.23047Z" fill="currentColor"/>
    </symbol>
</svg>