<svg id="like" width="16" height="16" viewBox="0 0 16 16" fill="none" xmlns="http://www.w3.org/2000/svg">
    <path d="M7.71875 11.875C8.71875 10.97917 9.45833 10.30208 9.9375 9.84375C10.41667 9.38542 10.9375 8.84375 11.5 8.21875C12.0625 7.59375 12.4479 7.04167 12.6562 6.5625C12.8854 6.08333 13 5.61458 13 5.15625C13 4.48958 12.7708 3.9375 12.3125 3.5C11.875 3.0625 11.3229 2.84375 10.65625 2.84375C10.13542 2.84375 9.64583 2.98958 9.1875 3.28125C8.75 3.57292 8.44792 3.94792 8.28125 4.40625H7.03125C6.86458 3.94792 6.55208 3.57292 6.09375 3.28125C5.65625 2.98958 5.17708 2.84375 4.65625 2.84375C3.98958 2.84375 3.42708 3.0625 2.96875 3.5C2.53125 3.9375 2.3125 4.48958 2.3125 5.15625C2.3125 5.61458 2.41667 6.08333 2.625 6.5625C2.85417 7.04167 3.25 7.59375 3.8125 8.21875C4.375 8.84375 4.89583 9.38542 5.375 9.84375C5.85417 10.30208 6.59375 10.97917 7.59375 11.875L7.65625 11.9375L7.71875 11.875ZM10.65625 1.5C11.6979 1.5 12.5625 1.85417 13.25 2.5625C13.9583 3.27083 14.3125 4.13542 14.3125 5.15625C14.3125 5.76042 14.1979 6.35417 13.9688 6.9375C13.7396 7.5 13.3125 8.13542 12.6875 8.84375C12.0833 9.55208 11.5312 10.14583 11.0312 10.625C10.53125 11.10417 9.72917 11.8438 8.625 12.8438L7.65625 13.7188L6.6875 12.875C5.25 11.5833 4.20833 10.61458 3.5625 9.96875C2.9375 9.32292 2.35417 8.5625 1.8125 7.6875C1.27083 6.8125 1 5.96875 1 5.15625C1 4.13542 1.34375 3.27083 2.03125 2.5625C2.73958 1.85417 3.61458 1.5 4.65625 1.5C5.86458 1.5 6.86458 1.96875 7.65625 2.90625C8.44792 1.96875 9.44792 1.5 10.65625 1.5Z" fill="currentColor"/>
</svg>