<svg id="like-filled" width="16" height="16" viewBox="0 0 16 16" fill="none" xmlns="http://www.w3.org/2000/svg">
    <path d="M14.993 5.37c-.055-1.015-.484-1.968-1.21-2.684-.735-.725-1.695-1.123-2.702-1.123-1.5 0-2.585 1.185-3.17 1.821-.09.1-.195.214-.268.284-.06-.06-.139-.152-.212-.235-.534-.607-1.643-1.87-3.242-1.87-.999 0-1.959.398-2.694 1.123-.726.716-1.155 1.669-1.21 2.684-.054 1.014.205 1.895.84 2.86.504.764 1.829 2.253 3.224 3.624.717.706 1.38 1.304 1.912 1.73.865.692 1.196.943 1.39.943.18 0 .52-.11 1.393-.941.532-.424 1.19-.1.905 1.906-1.726 1.383-1.362 2.703-2.855 3.212-3.628.626-.78 1.108-1.693 1.04-2.988z" fill="currentColor"/>
</svg>