<svg width="440" height="432" viewBox="0 0 440 432" fill="none" xmlns="http://www.w3.org/2000/svg">
<g clip-path="url(#clip0_5_16471)">
<path d="M334.661 1.2793C237.441 49.2239 140.22 97.1759 43 145.128C43.0294 154.087 43.0515 163.053 43.081 172.012C43.0515 172.027 43.0294 172.041 43 172.056C43.0294 182.018 43.0589 191.981 43.0957 201.944C43.0662 201.958 43.0294 201.973 43 201.987C43.0294 210.946 43.0515 219.913 43.081 228.872C43.0515 228.886 43.0294 228.901 43 228.916C43.1251 270.89 43.2576 312.872 43.3901 354.846C63.7499 371.35 84.1096 387.847 104.477 404.351C111.771 400.476 119.073 396.601 126.367 392.726C143.768 405.575 161.169 418.431 178.57 431.279C198.318 401.399 218.06 371.519 237.809 341.631C291.203 314.059 344.598 286.486 398 258.913V47.0336C376.889 31.7822 355.772 16.5307 334.661 1.2793ZM131.019 369.233L125.079 378.046H124.248C124.041 374.449 123.828 370.852 123.622 367.255C123.063 357.571 122.503 347.894 121.944 338.218C121.495 330.519 121.053 322.812 120.604 315.113C120.508 315.135 120.413 315.135 120.324 315.179L85.7584 332.328L62.8519 343.69L53.386 348.385V152.57L330.105 15.2928V211.108L191.12 280.054C175.574 303.122 160.035 326.182 144.49 349.25C140 355.908 135.509 362.575 131.019 369.233Z" fill="#AE7AFF"/>
<path d="M86.0676 223.378V181.667L70.6543 189.285V169.902L123.784 143.648V163.031L108.326 170.664V212.375L86.0603 223.378H86.0676Z" fill="#AE7AFF"/>
<path d="M86.0676 223.378V181.667L70.6543 189.285V169.902L123.784 143.648V163.031L108.326 170.664V212.375L86.0603 223.378H86.0676Z" fill="white" fill-opacity="0.8"/>
<path d="M131.748 200.801V139.7L154.014 128.697V189.798L131.748 200.801Z" fill="#AE7AFF"/>
<path d="M131.748 200.801V139.7L154.014 128.697V189.798L131.748 200.801Z" fill="white" fill-opacity="0.8"/>
<path d="M203.883 165.156C201.175 160.584 198.937 157.31 197.185 155.325C195.433 153.34 193.733 152.146 192.091 151.75C190.45 151.354 188.448 151.655 186.078 152.658V173.961L163.812 184.963V123.862L186.078 112.86V133.144C188.22 131.891 190.03 130.294 191.517 128.367C193.004 126.441 194.498 123.752 196.015 120.31C197.524 116.867 199.437 111.797 201.749 105.117L226.238 93.0151C224.464 97.8645 222.911 101.967 221.571 105.314C220.231 108.662 218.87 111.739 217.486 114.537C216.102 117.335 214.814 119.643 213.629 121.445C212.444 123.254 211.097 124.932 209.58 126.492C208.064 128.045 206.54 129.364 205.002 130.441C203.464 131.517 201.624 132.623 199.482 133.766V138.791C201.933 137.693 204.06 136.887 205.863 136.367C207.659 135.847 209.419 135.605 211.126 135.642C212.841 135.678 214.365 136 215.705 136.616C217.044 137.231 218.457 138.264 219.944 139.722C221.431 141.18 222.874 142.923 224.287 144.967C225.7 147.011 227.305 149.589 229.101 152.702L203.883 165.163V165.156Z" fill="#AE7AFF"/>
<path d="M203.883 165.156C201.175 160.584 198.937 157.31 197.185 155.325C195.433 153.34 193.733 152.146 192.091 151.75C190.45 151.354 188.448 151.655 186.078 152.658V173.961L163.812 184.963V123.862L186.078 112.86V133.144C188.22 131.891 190.03 130.294 191.517 128.367C193.004 126.441 194.498 123.752 196.015 120.31C197.524 116.867 199.437 111.797 201.749 105.117L226.238 93.0151C224.464 97.8645 222.911 101.967 221.571 105.314C220.231 108.662 218.87 111.739 217.486 114.537C216.102 117.335 214.814 119.643 213.629 121.445C212.444 123.254 211.097 124.932 209.58 126.492C208.064 128.045 206.54 129.364 205.002 130.441C203.464 131.517 201.624 132.623 199.482 133.766V138.791C201.933 137.693 204.06 136.887 205.863 136.367C207.659 135.847 209.419 135.605 211.126 135.642C212.841 135.678 214.365 136 215.705 136.616C217.044 137.231 218.457 138.264 219.944 139.722C221.431 141.18 222.874 142.923 224.287 144.967C225.7 147.011 227.305 149.589 229.101 152.702L203.883 165.163V165.156Z" fill="white" fill-opacity="0.8"/>
<path d="M229.785 131.95V118.486L260.354 103.381V116.845L229.785 131.95Z" fill="#AE7AFF"/>
<path d="M229.785 131.95V118.486L260.354 103.381V116.845L229.785 131.95Z" fill="white" fill-opacity="0.8"/>
<path d="M86.0676 306.887V265.176L70.6543 272.795V253.412L123.784 227.158V246.541L108.326 254.174V295.884L86.0603 306.887H86.0676Z" fill="#AE7AFF"/>
<path d="M86.0676 306.887V265.176L70.6543 272.795V253.412L123.784 227.158V246.541L108.326 254.174V295.884L86.0603 306.887H86.0676Z" fill="white" fill-opacity="0.8"/>
<path d="M145.064 277.732L122.032 289.115L143.224 217.547L169.722 204.449L190.914 255.074L167.882 266.458L165.784 260.59L147.162 269.791L145.064 277.732ZM150.886 252.957L162.104 247.412C161.044 243.984 160.315 240.973 159.896 238.365C159.484 235.757 159.219 232.307 159.101 228.022L153.838 230.622C153.691 235.069 153.433 238.79 153.043 241.794C152.653 244.797 151.939 248.518 150.879 252.957H150.886Z" fill="#AE7AFF"/>
<path d="M145.064 277.732L122.032 289.115L143.224 217.547L169.722 204.449L190.914 255.074L167.882 266.458L165.784 260.59L147.162 269.791L145.064 277.732ZM150.886 252.957L162.104 247.412C161.044 243.984 160.315 240.973 159.896 238.365C159.484 235.757 159.219 232.307 159.101 228.022L153.838 230.622C153.691 235.069 153.433 238.79 153.043 241.794C152.653 244.797 151.939 248.518 150.879 252.957H150.886Z" fill="white" fill-opacity="0.8"/>
<path d="M197.163 251.991V190.89L219.429 179.887V221.598L240.532 211.166V230.549L197.163 251.976V251.991Z" fill="#AE7AFF"/>
<path d="M197.163 251.991V190.89L219.429 179.887V221.598L240.532 211.166V230.549L197.163 251.976V251.991Z" fill="white" fill-opacity="0.8"/>
<path d="M288.443 206.888C285.734 202.317 283.496 199.043 281.745 197.058C279.993 195.072 278.292 193.878 276.651 193.483C275.01 193.087 273.007 193.387 270.637 194.391V215.693L248.371 226.696V165.595L270.637 154.592V174.876C272.779 173.624 274.59 172.027 276.077 170.1C277.564 168.174 279.058 165.485 280.574 162.042C282.083 158.599 283.997 153.53 286.308 146.849L310.797 134.748C309.023 139.597 307.47 143.699 306.131 147.047C304.791 150.395 303.429 153.471 302.045 156.27C300.662 159.068 299.373 161.376 298.196 163.178C297.011 164.987 295.664 166.664 294.147 168.225C292.631 169.778 291.107 171.096 289.569 172.173C288.031 173.25 286.19 174.356 284.048 175.499V180.524C286.5 179.425 288.627 178.62 290.43 178.099C292.226 177.579 293.985 177.338 295.693 177.374C297.408 177.411 298.932 177.733 300.271 178.348C301.611 178.964 303.024 179.997 304.511 181.454C305.998 182.912 307.441 184.656 308.854 186.699C310.267 188.743 311.872 191.322 313.668 194.435L288.45 206.896L288.443 206.888Z" fill="#AE7AFF"/>
<path d="M288.443 206.888C285.734 202.317 283.496 199.043 281.745 197.058C279.993 195.072 278.292 193.878 276.651 193.483C275.01 193.087 273.007 193.387 270.637 194.391V215.693L248.371 226.696V165.595L270.637 154.592V174.876C272.779 173.624 274.59 172.027 276.077 170.1C277.564 168.174 279.058 165.485 280.574 162.042C282.083 158.599 283.997 153.53 286.308 146.849L310.797 134.748C309.023 139.597 307.47 143.699 306.131 147.047C304.791 150.395 303.429 153.471 302.045 156.27C300.662 159.068 299.373 161.376 298.196 163.178C297.011 164.987 295.664 166.664 294.147 168.225C292.631 169.778 291.107 171.096 289.569 172.173C288.031 173.25 286.19 174.356 284.048 175.499V180.524C286.5 179.425 288.627 178.62 290.43 178.099C292.226 177.579 293.985 177.338 295.693 177.374C297.408 177.411 298.932 177.733 300.271 178.348C301.611 178.964 303.024 179.997 304.511 181.454C305.998 182.912 307.441 184.656 308.854 186.699C310.267 188.743 311.872 191.322 313.668 194.435L288.45 206.896L288.443 206.888Z" fill="white" fill-opacity="0.8"/>
<g clip-path="url(#clip1_5_16471)">
<mask id="mask0_5_16471" style="mask-type:luminance" maskUnits="userSpaceOnUse" x="53" y="9" width="63" height="63">
<path d="M115 9.27919L53 9.45361L53.1744 71.4534L115.174 71.2789L115 9.27919Z" fill="white"/>
</mask>
<g mask="url(#mask0_5_16471)">
<path d="M84.1743 71.3662C83.1942 42 82.4584 41.273 53.0872 40.4535C82.4533 39.4734 83.1805 38.7376 83.9999 9.3664C84.9799 38.7325 85.7158 39.4597 115.087 40.2791C85.7208 41.2638 84.9937 41.986 84.1743 71.3662Z" fill="#AE7AFF"/>
</g>
</g>
</g>
<g clip-path="url(#clip2_5_16471)">
<mask id="mask1_5_16471" style="mask-type:luminance" maskUnits="userSpaceOnUse" x="299" y="343" width="79" height="79">
<path d="M377 343.279L299 343.499L299.219 421.498L377.219 421.279L377 343.279Z" fill="white"/>
</mask>
<g mask="url(#mask1_5_16471)">
<path d="M338 343.389C339.383 364.351 356.139 381.014 377.109 382.279C356.147 383.662 339.484 400.419 338.219 421.389C336.836 400.426 320.08 383.764 299.11 382.499C320.072 381.116 336.735 364.359 338 343.389Z" fill="#AE7AFF"/>
</g>
</g>
<defs>
<clipPath id="clip0_5_16471">
<rect width="355" height="430" fill="white" transform="translate(43 1.2793)"/>
</clipPath>
<clipPath id="clip1_5_16471">
<rect width="62" height="62" fill="white" transform="translate(53 9.45361) rotate(-0.161186)"/>
</clipPath>
<clipPath id="clip2_5_16471">
<rect width="78" height="78" fill="white" transform="translate(299 343.499) rotate(-0.161186)"/>
</clipPath>
</defs>
</svg>
