<svg id="reply" width="16" height="16" viewBox="0 0 16 16" fill="none" xmlns="http://www.w3.org/2000/svg">
    <path d="M11 7.65625C11 7.84375 10.92708 8 10.78125 8.125C10.65625 8.25 10.5 8.3125 10.3125 8.3125H3.65625L1 11V1.65625C1 1.46875 1.0625 1.3125 1.1875 1.1875C1.3125 1.0625 1.46875 1 1.65625 1H10.3125C10.5 1 10.65625 1.0625 10.78125 1.1875C10.92708 1.3125 11 1.46875 11 1.65625V7.65625ZM13.6562 3.65625C13.8438 3.65625 14 3.71875 14.125 3.84375C14.25 3.96875 14.3125 4.125 14.3125 4.3125V14.3125L11.6562 11.6562H4.3125C4.125 11.6562 3.96875 11.5938 3.84375 11.4688C3.71875 11.3438 3.65625 11.1875 3.65625 11V9.65625H12.3125V3.65625H13.6562Z" fill="currentColor"/>
</svg>