<svg id='upload' width="18" height="13" viewBox="0 0 18 13" fill="none" xmlns="http://www.w3.org/2000/svg">
    <path d="M10.5117 6.75H12.7617L9 3.02344L5.23828 6.75H7.48828V9.77344H10.5117V6.75ZM14.5195 4.53516C15.4805 4.60547 16.3008 5.00391 16.9805 5.73047C17.6602 6.43359 18 7.27734 18 8.26172C18 9.29297 17.625 10.1836 16.875 10.9336C16.1484 11.6602 15.2695 12.0234 14.2383 12.0234H4.5C3.25781 12.0234 2.19141 11.5898 1.30078 10.7227C0.433594 9.83203 0 8.76562 0 7.52344C0 6.42188 0.386719 5.4375 1.16016 4.57031C1.95703 3.67969 2.90625 3.17578 4.00781 3.05859C4.5 2.14453 5.19141 1.40625 6.08203 0.84375C6.97266 0.28125 7.94531 0 9 0C10.2656 0 11.4375 0.445313 12.5156 1.33594C13.6172 2.22656 14.2852 3.29297 14.5195 4.53516Z" fill="currentColor"/>
</svg>
